# xmcd
#
# Track frame offsets:
#	150
#	10705
#	25890
#	35315
#	44962
#	60517
#	77455
#	96560
#	107650
#	121645
#	136682
#	147607
#	163200
#	180745
#	193775
#
# Disc length: 2815 seconds
#
# Revision: 0
# Processed by: cddbd v1.5.2PL0 Copyright (c) Steve Scherf et al.
# Submitted via: EasyCDDAExtractor 16.0.8.1
#
DISCID=ca0afd0f
DTITLE=Jacó and Jacózinho - Jacó and Jacózinho - As Melhores de Jacó and Jacózinho
DYEAR=1900
DGENRE=Sertanejo
TTITLE0=Menina Moça
TTITLE1=Relógio Quebrado
TTITLE2=Linha De Fogo
TTITLE3=Pé Quente Pé Gelado
TTITLE4=Fazenda Do Pau D´Alho
TTITLE5=Cabloco Pé Rachado
TTITLE6=Igrejinha Da Serra
TTITLE7=A Velha Do Quanda-Chuva
TTITLE8=Cantinho Da Felicidade
TTITLE9=Fogueira
TTITLE10=Tontona
TTITLE11=Duas Estradas 
TTITLE12=A Maior Fera Do Mundo
TTITLE13=João Pé No Chão
TTITLE14=Vida Marcada
EXTD=
EXTT0=
EXTT1=
EXTT2=
EXTT3=
EXTT4=
EXTT5=
EXTT6=
EXTT7=
EXTT8=
EXTT9=
EXTT10=
EXTT11=
EXTT12=
EXTT13=
EXTT14=
PLAYORDER=
